<mxfile host="app.diagrams.net" modified="2023-03-18T05:25:28.587Z" agent="5.0 (Macintosh; Intel Mac OS X 10_13_6) AppleWebKit/537.36 (KHTML, like Gecko) Chrome/105.0.0.0 Safari/537.36" etag="Nxwi0TE0iho_iT6lbcIG" version="21.0.6" type="github">
  <diagram name="Page-1" id="2YBvvXClWsGukQMizWep">
    <mxGraphModel dx="798" dy="325" grid="1" gridSize="10" guides="1" tooltips="1" connect="1" arrows="1" fold="1" page="1" pageScale="1" pageWidth="1169" pageHeight="1654" math="0" shadow="0">
      <root>
        <mxCell id="0" />
        <mxCell id="1" parent="0" />
        <mxCell id="aM9ryv3xv72pqoxQDRHE-1" value="Player" style="shape=umlLifeline;perimeter=lifelinePerimeter;whiteSpace=wrap;html=1;container=0;dropTarget=0;collapsible=0;recursiveResize=0;outlineConnect=0;portConstraint=eastwest;newEdgeStyle={&quot;edgeStyle&quot;:&quot;elbowEdgeStyle&quot;,&quot;elbow&quot;:&quot;vertical&quot;,&quot;curved&quot;:0,&quot;rounded&quot;:0};" parent="1" vertex="1">
          <mxGeometry x="195" y="80" width="100" height="1060" as="geometry" />
        </mxCell>
        <mxCell id="aM9ryv3xv72pqoxQDRHE-5" value="UI" style="shape=umlLifeline;perimeter=lifelinePerimeter;whiteSpace=wrap;html=1;container=0;dropTarget=0;collapsible=0;recursiveResize=0;outlineConnect=0;portConstraint=eastwest;newEdgeStyle={&quot;edgeStyle&quot;:&quot;elbowEdgeStyle&quot;,&quot;elbow&quot;:&quot;vertical&quot;,&quot;curved&quot;:0,&quot;rounded&quot;:0};" parent="1" vertex="1">
          <mxGeometry x="480" y="80" width="100" height="1060" as="geometry" />
        </mxCell>
        <mxCell id="aM9ryv3xv72pqoxQDRHE-7" value="" style="html=1;verticalAlign=bottom;endArrow=block;edgeStyle=elbowEdgeStyle;elbow=vertical;curved=0;rounded=0;" parent="1" source="aM9ryv3xv72pqoxQDRHE-1" edge="1">
          <mxGeometry x="-0.002" relative="1" as="geometry">
            <mxPoint x="250" y="205" as="sourcePoint" />
            <Array as="points">
              <mxPoint x="490" y="205" />
            </Array>
            <mxPoint x="515" y="205" as="targetPoint" />
            <mxPoint as="offset" />
          </mxGeometry>
        </mxCell>
        <mxCell id="xq8QzK1p6WDyC5gtRboi-2" value="Game" style="shape=umlLifeline;perimeter=lifelinePerimeter;whiteSpace=wrap;html=1;container=0;dropTarget=0;collapsible=0;recursiveResize=0;outlineConnect=0;portConstraint=eastwest;newEdgeStyle={&quot;edgeStyle&quot;:&quot;elbowEdgeStyle&quot;,&quot;elbow&quot;:&quot;vertical&quot;,&quot;curved&quot;:0,&quot;rounded&quot;:0};" parent="1" vertex="1">
          <mxGeometry x="705" y="80" width="100" height="1060" as="geometry" />
        </mxCell>
        <mxCell id="xq8QzK1p6WDyC5gtRboi-3" value="Hangman" style="shape=umlLifeline;perimeter=lifelinePerimeter;whiteSpace=wrap;html=1;container=0;dropTarget=0;collapsible=0;recursiveResize=0;outlineConnect=0;portConstraint=eastwest;newEdgeStyle={&quot;edgeStyle&quot;:&quot;elbowEdgeStyle&quot;,&quot;elbow&quot;:&quot;vertical&quot;,&quot;curved&quot;:0,&quot;rounded&quot;:0};" parent="1" vertex="1">
          <mxGeometry x="865" y="80" width="100" height="1060" as="geometry" />
        </mxCell>
        <mxCell id="xq8QzK1p6WDyC5gtRboi-4" value="" style="endArrow=classic;html=1;rounded=0;startArrow=none;entryX=0;entryY=1;entryDx=0;entryDy=0;" parent="1" source="aM9ryv3xv72pqoxQDRHE-5" target="xq8QzK1p6WDyC5gtRboi-8" edge="1">
          <mxGeometry width="50" height="50" relative="1" as="geometry">
            <mxPoint x="545" y="330" as="sourcePoint" />
            <mxPoint x="595" y="280" as="targetPoint" />
            <Array as="points">
              <mxPoint x="575" y="240" />
            </Array>
          </mxGeometry>
        </mxCell>
        <mxCell id="xq8QzK1p6WDyC5gtRboi-5" value="2. Request new game" style="text;html=1;align=center;verticalAlign=middle;resizable=0;points=[];autosize=1;strokeColor=none;fillColor=none;" parent="1" vertex="1">
          <mxGeometry x="580" y="170" width="140" height="30" as="geometry" />
        </mxCell>
        <mxCell id="xq8QzK1p6WDyC5gtRboi-15" value="&lt;font style=&quot;font-size: 12px;&quot;&gt;3. Generate random words&lt;/font&gt;" style="text;html=1;align=center;verticalAlign=middle;resizable=0;points=[];autosize=1;strokeColor=none;fillColor=none;" parent="1" vertex="1">
          <mxGeometry x="580" y="275" width="170" height="30" as="geometry" />
        </mxCell>
        <mxCell id="xq8QzK1p6WDyC5gtRboi-16" value="" style="group" parent="1" vertex="1" connectable="0">
          <mxGeometry x="745" y="240" width="80" height="100" as="geometry" />
        </mxCell>
        <mxCell id="xq8QzK1p6WDyC5gtRboi-8" value="" style="rounded=1;whiteSpace=wrap;html=1;rotation=90;" parent="xq8QzK1p6WDyC5gtRboi-16" vertex="1">
          <mxGeometry x="-10" y="10" width="40" height="20" as="geometry" />
        </mxCell>
        <mxCell id="xq8QzK1p6WDyC5gtRboi-9" value="" style="rounded=1;whiteSpace=wrap;html=1;rotation=90;" parent="xq8QzK1p6WDyC5gtRboi-16" vertex="1">
          <mxGeometry x="-10" y="70" width="40" height="20" as="geometry" />
        </mxCell>
        <mxCell id="xq8QzK1p6WDyC5gtRboi-14" value="" style="curved=1;endArrow=classic;html=1;rounded=0;exitX=0.25;exitY=0;exitDx=0;exitDy=0;entryX=0.508;entryY=-0.128;entryDx=0;entryDy=0;entryPerimeter=0;" parent="xq8QzK1p6WDyC5gtRboi-16" source="xq8QzK1p6WDyC5gtRboi-8" target="xq8QzK1p6WDyC5gtRboi-9" edge="1">
          <mxGeometry width="50" height="50" relative="1" as="geometry">
            <mxPoint x="40" y="40" as="sourcePoint" />
            <mxPoint x="80" y="80" as="targetPoint" />
            <Array as="points">
              <mxPoint x="80" y="10" />
              <mxPoint x="80" y="80" />
            </Array>
          </mxGeometry>
        </mxCell>
        <mxCell id="xq8QzK1p6WDyC5gtRboi-17" value="" style="endArrow=classic;html=1;rounded=0;fontSize=12;" parent="1" source="xq8QzK1p6WDyC5gtRboi-2" target="xq8QzK1p6WDyC5gtRboi-3" edge="1">
          <mxGeometry width="50" height="50" relative="1" as="geometry">
            <mxPoint x="785" y="400" as="sourcePoint" />
            <mxPoint x="835" y="350" as="targetPoint" />
            <Array as="points">
              <mxPoint x="865" y="380" />
            </Array>
          </mxGeometry>
        </mxCell>
        <mxCell id="_dYFzU9TArgMgV9j6ooU-1" value="4. Send word to Hangman" style="text;html=1;align=center;verticalAlign=middle;resizable=0;points=[];autosize=1;strokeColor=none;fillColor=none;" vertex="1" parent="1">
          <mxGeometry x="755" y="355" width="160" height="30" as="geometry" />
        </mxCell>
        <mxCell id="_dYFzU9TArgMgV9j6ooU-7" value="" style="rounded=1;whiteSpace=wrap;html=1;rotation=90;" vertex="1" parent="1">
          <mxGeometry x="895" y="400" width="40" height="20" as="geometry" />
        </mxCell>
        <mxCell id="_dYFzU9TArgMgV9j6ooU-8" value="" style="rounded=1;whiteSpace=wrap;html=1;rotation=90;" vertex="1" parent="1">
          <mxGeometry x="895" y="460" width="40" height="20" as="geometry" />
        </mxCell>
        <mxCell id="_dYFzU9TArgMgV9j6ooU-9" value="" style="curved=1;endArrow=classic;html=1;rounded=0;exitX=0.5;exitY=0;exitDx=0;exitDy=0;entryX=0.5;entryY=0;entryDx=0;entryDy=0;" edge="1" parent="1" source="_dYFzU9TArgMgV9j6ooU-7" target="_dYFzU9TArgMgV9j6ooU-8">
          <mxGeometry width="50" height="50" relative="1" as="geometry">
            <mxPoint x="955" y="490" as="sourcePoint" />
            <mxPoint x="1005" y="440" as="targetPoint" />
            <Array as="points">
              <mxPoint x="955" y="420" />
              <mxPoint x="955" y="460" />
            </Array>
          </mxGeometry>
        </mxCell>
        <mxCell id="_dYFzU9TArgMgV9j6ooU-10" value="5. Initialize game state" style="text;html=1;align=center;verticalAlign=middle;resizable=0;points=[];autosize=1;strokeColor=none;fillColor=none;" vertex="1" parent="1">
          <mxGeometry x="765" y="430" width="140" height="30" as="geometry" />
        </mxCell>
        <mxCell id="_dYFzU9TArgMgV9j6ooU-11" value="" style="rounded=1;whiteSpace=wrap;html=1;rotation=90;" vertex="1" parent="1">
          <mxGeometry x="510" y="490" width="40" height="20" as="geometry" />
        </mxCell>
        <mxCell id="_dYFzU9TArgMgV9j6ooU-12" value="" style="endArrow=classic;html=1;rounded=0;exitX=1;exitY=1;exitDx=0;exitDy=0;" edge="1" parent="1" source="_dYFzU9TArgMgV9j6ooU-8">
          <mxGeometry width="50" height="50" relative="1" as="geometry">
            <mxPoint x="905" y="480" as="sourcePoint" />
            <mxPoint x="545" y="490" as="targetPoint" />
            <Array as="points">
              <mxPoint x="855" y="490" />
              <mxPoint x="805" y="490" />
              <mxPoint x="715" y="490" />
            </Array>
          </mxGeometry>
        </mxCell>
        <mxCell id="_dYFzU9TArgMgV9j6ooU-14" value="6. Display the state of the game" style="text;html=1;align=center;verticalAlign=middle;resizable=0;points=[];autosize=1;strokeColor=none;fillColor=none;" vertex="1" parent="1">
          <mxGeometry x="550" y="445" width="190" height="30" as="geometry" />
        </mxCell>
        <mxCell id="_dYFzU9TArgMgV9j6ooU-15" value="" style="rounded=1;whiteSpace=wrap;html=1;rotation=90;" vertex="1" parent="1">
          <mxGeometry x="225" y="530" width="40" height="20" as="geometry" />
        </mxCell>
        <mxCell id="_dYFzU9TArgMgV9j6ooU-16" value="" style="endArrow=classic;html=1;rounded=0;entryX=0;entryY=0;entryDx=0;entryDy=0;exitX=1;exitY=1;exitDx=0;exitDy=0;" edge="1" parent="1" source="_dYFzU9TArgMgV9j6ooU-11" target="_dYFzU9TArgMgV9j6ooU-15">
          <mxGeometry width="50" height="50" relative="1" as="geometry">
            <mxPoint x="545" y="560" as="sourcePoint" />
            <mxPoint x="595" y="510" as="targetPoint" />
          </mxGeometry>
        </mxCell>
        <mxCell id="_dYFzU9TArgMgV9j6ooU-17" value="7. Player select letter to guess" style="text;html=1;align=center;verticalAlign=middle;resizable=0;points=[];autosize=1;strokeColor=none;fillColor=none;" vertex="1" parent="1">
          <mxGeometry x="285" y="485" width="180" height="30" as="geometry" />
        </mxCell>
        <mxCell id="_dYFzU9TArgMgV9j6ooU-18" value="" style="rounded=1;whiteSpace=wrap;html=1;rotation=90;" vertex="1" parent="1">
          <mxGeometry x="510" y="560" width="40" height="20" as="geometry" />
        </mxCell>
        <mxCell id="_dYFzU9TArgMgV9j6ooU-21" value="" style="edgeStyle=none;orthogonalLoop=1;jettySize=auto;html=1;rounded=0;exitX=1;exitY=0;exitDx=0;exitDy=0;entryX=0.25;entryY=1;entryDx=0;entryDy=0;" edge="1" parent="1" source="_dYFzU9TArgMgV9j6ooU-15" target="_dYFzU9TArgMgV9j6ooU-18">
          <mxGeometry width="100" relative="1" as="geometry">
            <mxPoint x="285" y="590" as="sourcePoint" />
            <mxPoint x="515" y="560" as="targetPoint" />
            <Array as="points">
              <mxPoint x="375" y="560" />
            </Array>
          </mxGeometry>
        </mxCell>
        <mxCell id="_dYFzU9TArgMgV9j6ooU-22" value="8. Get letter guess" style="text;html=1;align=center;verticalAlign=middle;resizable=0;points=[];autosize=1;strokeColor=none;fillColor=none;" vertex="1" parent="1">
          <mxGeometry x="325" y="535" width="120" height="30" as="geometry" />
        </mxCell>
        <mxCell id="_dYFzU9TArgMgV9j6ooU-23" value="" style="rounded=1;whiteSpace=wrap;html=1;rotation=90;" vertex="1" parent="1">
          <mxGeometry x="735" y="600" width="40" height="20" as="geometry" />
        </mxCell>
        <mxCell id="_dYFzU9TArgMgV9j6ooU-24" value="" style="endArrow=classic;html=1;rounded=0;" edge="1" parent="1" source="aM9ryv3xv72pqoxQDRHE-5">
          <mxGeometry width="50" height="50" relative="1" as="geometry">
            <mxPoint x="645" y="570" as="sourcePoint" />
            <mxPoint x="745" y="590" as="targetPoint" />
            <Array as="points">
              <mxPoint x="635" y="590" />
            </Array>
          </mxGeometry>
        </mxCell>
        <mxCell id="_dYFzU9TArgMgV9j6ooU-25" value="9. Sent guessed letter to game" style="text;html=1;align=center;verticalAlign=middle;resizable=0;points=[];autosize=1;strokeColor=none;fillColor=none;" vertex="1" parent="1">
          <mxGeometry x="550" y="555" width="190" height="30" as="geometry" />
        </mxCell>
        <mxCell id="_dYFzU9TArgMgV9j6ooU-26" value="" style="rounded=1;whiteSpace=wrap;html=1;rotation=90;" vertex="1" parent="1">
          <mxGeometry x="895" y="640" width="40" height="20" as="geometry" />
        </mxCell>
        <mxCell id="_dYFzU9TArgMgV9j6ooU-27" value="" style="endArrow=classic;html=1;rounded=0;entryX=0;entryY=1;entryDx=0;entryDy=0;" edge="1" parent="1" source="xq8QzK1p6WDyC5gtRboi-2" target="_dYFzU9TArgMgV9j6ooU-26">
          <mxGeometry width="50" height="50" relative="1" as="geometry">
            <mxPoint x="885" y="680" as="sourcePoint" />
            <mxPoint x="935" y="630" as="targetPoint" />
          </mxGeometry>
        </mxCell>
        <mxCell id="_dYFzU9TArgMgV9j6ooU-28" value="10. Check guessed letters" style="text;html=1;align=center;verticalAlign=middle;resizable=0;points=[];autosize=1;strokeColor=none;fillColor=none;" vertex="1" parent="1">
          <mxGeometry x="755" y="595" width="160" height="30" as="geometry" />
        </mxCell>
        <mxCell id="_dYFzU9TArgMgV9j6ooU-29" value="" style="rounded=1;whiteSpace=wrap;html=1;rotation=90;" vertex="1" parent="1">
          <mxGeometry x="895" y="720" width="40" height="20" as="geometry" />
        </mxCell>
        <mxCell id="_dYFzU9TArgMgV9j6ooU-31" value="" style="curved=1;endArrow=classic;html=1;rounded=0;entryX=0.5;entryY=0;entryDx=0;entryDy=0;exitX=0.5;exitY=0;exitDx=0;exitDy=0;" edge="1" parent="1" source="_dYFzU9TArgMgV9j6ooU-26" target="_dYFzU9TArgMgV9j6ooU-29">
          <mxGeometry width="50" height="50" relative="1" as="geometry">
            <mxPoint x="825" y="760" as="sourcePoint" />
            <mxPoint x="875" y="710" as="targetPoint" />
            <Array as="points">
              <mxPoint x="945" y="660" />
              <mxPoint x="965" y="690" />
              <mxPoint x="945" y="720" />
            </Array>
          </mxGeometry>
        </mxCell>
        <mxCell id="_dYFzU9TArgMgV9j6ooU-32" value="11. Update game state" style="text;html=1;align=center;verticalAlign=middle;resizable=0;points=[];autosize=1;strokeColor=none;fillColor=none;" vertex="1" parent="1">
          <mxGeometry x="965" y="670" width="140" height="30" as="geometry" />
        </mxCell>
        <mxCell id="_dYFzU9TArgMgV9j6ooU-33" value="" style="rounded=1;whiteSpace=wrap;html=1;rotation=90;" vertex="1" parent="1">
          <mxGeometry x="735" y="760" width="40" height="20" as="geometry" />
        </mxCell>
        <mxCell id="_dYFzU9TArgMgV9j6ooU-34" value="" style="endArrow=classic;html=1;rounded=0;" edge="1" parent="1" source="xq8QzK1p6WDyC5gtRboi-3">
          <mxGeometry width="50" height="50" relative="1" as="geometry">
            <mxPoint x="805" y="760" as="sourcePoint" />
            <mxPoint x="765" y="750" as="targetPoint" />
            <Array as="points">
              <mxPoint x="845" y="750" />
            </Array>
          </mxGeometry>
        </mxCell>
        <mxCell id="_dYFzU9TArgMgV9j6ooU-35" value="12. Check guessed letter" style="text;html=1;align=center;verticalAlign=middle;resizable=0;points=[];autosize=1;strokeColor=none;fillColor=none;" vertex="1" parent="1">
          <mxGeometry x="755" y="715" width="160" height="30" as="geometry" />
        </mxCell>
        <mxCell id="_dYFzU9TArgMgV9j6ooU-36" value="1. Start game" style="text;html=1;align=center;verticalAlign=middle;resizable=0;points=[];autosize=1;strokeColor=none;fillColor=none;" vertex="1" parent="1">
          <mxGeometry x="335" y="180" width="100" height="30" as="geometry" />
        </mxCell>
        <mxCell id="_dYFzU9TArgMgV9j6ooU-39" value="" style="endArrow=none;html=1;rounded=0;" edge="1" parent="1" source="aM9ryv3xv72pqoxQDRHE-5" target="_dYFzU9TArgMgV9j6ooU-37">
          <mxGeometry width="50" height="50" relative="1" as="geometry">
            <mxPoint x="529" y="220" as="sourcePoint" />
            <mxPoint x="755" y="220" as="targetPoint" />
            <Array as="points" />
          </mxGeometry>
        </mxCell>
        <mxCell id="_dYFzU9TArgMgV9j6ooU-37" value="" style="rounded=1;whiteSpace=wrap;html=1;rotation=90;" vertex="1" parent="1">
          <mxGeometry x="510" y="210" width="40" height="20" as="geometry" />
        </mxCell>
        <mxCell id="_dYFzU9TArgMgV9j6ooU-40" value="" style="rounded=1;whiteSpace=wrap;html=1;rotation=90;" vertex="1" parent="1">
          <mxGeometry x="735" y="830" width="40" height="20" as="geometry" />
        </mxCell>
        <mxCell id="_dYFzU9TArgMgV9j6ooU-41" value="" style="curved=1;endArrow=classic;html=1;rounded=0;exitX=0.25;exitY=1;exitDx=0;exitDy=0;entryX=0.5;entryY=1;entryDx=0;entryDy=0;" edge="1" parent="1" source="_dYFzU9TArgMgV9j6ooU-33" target="_dYFzU9TArgMgV9j6ooU-40">
          <mxGeometry width="50" height="50" relative="1" as="geometry">
            <mxPoint x="625" y="835" as="sourcePoint" />
            <mxPoint x="625" y="880" as="targetPoint" />
            <Array as="points">
              <mxPoint x="695" y="770" />
              <mxPoint x="695" y="820" />
            </Array>
          </mxGeometry>
        </mxCell>
        <mxCell id="_dYFzU9TArgMgV9j6ooU-42" value="13. Check if game is over" style="text;html=1;align=center;verticalAlign=middle;resizable=0;points=[];autosize=1;strokeColor=none;fillColor=none;" vertex="1" parent="1">
          <mxGeometry x="540" y="780" width="160" height="30" as="geometry" />
        </mxCell>
        <mxCell id="_dYFzU9TArgMgV9j6ooU-49" value="&lt;font style=&quot;font-size: 14px;&quot;&gt;&lt;b&gt;Alt&lt;/b&gt;&lt;/font&gt;" style="shape=umlFrame;whiteSpace=wrap;html=1;pointerEvents=0;" vertex="1" parent="1">
          <mxGeometry x="185" y="810" width="830" height="330" as="geometry" />
        </mxCell>
        <mxCell id="_dYFzU9TArgMgV9j6ooU-51" value="" style="endArrow=none;dashed=1;html=1;rounded=0;entryX=1.001;entryY=0.447;entryDx=0;entryDy=0;entryPerimeter=0;exitX=0;exitY=0.456;exitDx=0;exitDy=0;exitPerimeter=0;" edge="1" parent="1" source="_dYFzU9TArgMgV9j6ooU-49" target="_dYFzU9TArgMgV9j6ooU-49">
          <mxGeometry width="50" height="50" relative="1" as="geometry">
            <mxPoint x="755" y="960" as="sourcePoint" />
            <mxPoint x="805" y="910" as="targetPoint" />
          </mxGeometry>
        </mxCell>
        <mxCell id="_dYFzU9TArgMgV9j6ooU-54" value="" style="rounded=1;whiteSpace=wrap;html=1;rotation=90;" vertex="1" parent="1">
          <mxGeometry x="510" y="870" width="40" height="20" as="geometry" />
        </mxCell>
        <mxCell id="_dYFzU9TArgMgV9j6ooU-56" value="" style="endArrow=classic;html=1;rounded=0;entryX=0;entryY=0;entryDx=0;entryDy=0;exitX=1;exitY=1;exitDx=0;exitDy=0;" edge="1" parent="1" source="_dYFzU9TArgMgV9j6ooU-40" target="_dYFzU9TArgMgV9j6ooU-54">
          <mxGeometry width="50" height="50" relative="1" as="geometry">
            <mxPoint x="625" y="840" as="sourcePoint" />
            <mxPoint x="675" y="790" as="targetPoint" />
          </mxGeometry>
        </mxCell>
        <mxCell id="_dYFzU9TArgMgV9j6ooU-57" value="14. Send game over status" style="text;html=1;align=center;verticalAlign=middle;resizable=0;points=[];autosize=1;strokeColor=none;fillColor=none;" vertex="1" parent="1">
          <mxGeometry x="550" y="830" width="170" height="30" as="geometry" />
        </mxCell>
        <mxCell id="_dYFzU9TArgMgV9j6ooU-58" value="" style="rounded=1;whiteSpace=wrap;html=1;rotation=90;" vertex="1" parent="1">
          <mxGeometry x="735" y="990" width="40" height="20" as="geometry" />
        </mxCell>
        <mxCell id="_dYFzU9TArgMgV9j6ooU-59" value="" style="rounded=1;whiteSpace=wrap;html=1;rotation=90;" vertex="1" parent="1">
          <mxGeometry x="510" y="1030" width="40" height="20" as="geometry" />
        </mxCell>
        <mxCell id="_dYFzU9TArgMgV9j6ooU-60" value="" style="rounded=1;whiteSpace=wrap;html=1;rotation=90;" vertex="1" parent="1">
          <mxGeometry x="225" y="910" width="40" height="20" as="geometry" />
        </mxCell>
        <mxCell id="_dYFzU9TArgMgV9j6ooU-61" value="" style="endArrow=classic;html=1;rounded=0;entryX=0;entryY=0;entryDx=0;entryDy=0;exitX=1;exitY=1;exitDx=0;exitDy=0;" edge="1" parent="1" source="_dYFzU9TArgMgV9j6ooU-54" target="_dYFzU9TArgMgV9j6ooU-60">
          <mxGeometry width="50" height="50" relative="1" as="geometry">
            <mxPoint x="455" y="920" as="sourcePoint" />
            <mxPoint x="505" y="870" as="targetPoint" />
          </mxGeometry>
        </mxCell>
        <mxCell id="_dYFzU9TArgMgV9j6ooU-62" value="15. Game Over" style="text;html=1;align=center;verticalAlign=middle;resizable=0;points=[];autosize=1;strokeColor=none;fillColor=none;" vertex="1" parent="1">
          <mxGeometry x="315" y="865" width="110" height="30" as="geometry" />
        </mxCell>
        <mxCell id="_dYFzU9TArgMgV9j6ooU-64" value="" style="endArrow=classic;html=1;rounded=0;entryX=0;entryY=0;entryDx=0;entryDy=0;exitX=1;exitY=1;exitDx=0;exitDy=0;" edge="1" parent="1" source="_dYFzU9TArgMgV9j6ooU-58" target="_dYFzU9TArgMgV9j6ooU-59">
          <mxGeometry width="50" height="50" relative="1" as="geometry">
            <mxPoint x="605" y="970" as="sourcePoint" />
            <mxPoint x="655" y="920" as="targetPoint" />
          </mxGeometry>
        </mxCell>
        <mxCell id="_dYFzU9TArgMgV9j6ooU-65" value="14. Send updated game state" style="text;html=1;align=center;verticalAlign=middle;resizable=0;points=[];autosize=1;strokeColor=none;fillColor=none;" vertex="1" parent="1">
          <mxGeometry x="550" y="985" width="180" height="30" as="geometry" />
        </mxCell>
        <mxCell id="_dYFzU9TArgMgV9j6ooU-66" value="" style="rounded=1;whiteSpace=wrap;html=1;rotation=90;" vertex="1" parent="1">
          <mxGeometry x="225" y="1070" width="40" height="20" as="geometry" />
        </mxCell>
        <mxCell id="_dYFzU9TArgMgV9j6ooU-67" value="" style="endArrow=classic;html=1;rounded=0;entryX=0;entryY=0;entryDx=0;entryDy=0;exitX=1;exitY=1;exitDx=0;exitDy=0;" edge="1" parent="1" source="_dYFzU9TArgMgV9j6ooU-59" target="_dYFzU9TArgMgV9j6ooU-66">
          <mxGeometry width="50" height="50" relative="1" as="geometry">
            <mxPoint x="405" y="1030" as="sourcePoint" />
            <mxPoint x="455" y="980" as="targetPoint" />
          </mxGeometry>
        </mxCell>
        <mxCell id="_dYFzU9TArgMgV9j6ooU-68" value="15. Display to the player" style="text;html=1;align=center;verticalAlign=middle;resizable=0;points=[];autosize=1;strokeColor=none;fillColor=none;" vertex="1" parent="1">
          <mxGeometry x="300" y="1020" width="150" height="30" as="geometry" />
        </mxCell>
        <mxCell id="_dYFzU9TArgMgV9j6ooU-69" value="" style="curved=1;endArrow=classic;html=1;rounded=0;entryX=0.5;entryY=1;entryDx=0;entryDy=0;exitX=0.5;exitY=1;exitDx=0;exitDy=0;" edge="1" parent="1" source="_dYFzU9TArgMgV9j6ooU-66" target="_dYFzU9TArgMgV9j6ooU-15">
          <mxGeometry width="50" height="50" relative="1" as="geometry">
            <mxPoint x="375" y="760" as="sourcePoint" />
            <mxPoint x="425" y="710" as="targetPoint" />
            <Array as="points">
              <mxPoint x="75" y="940" />
              <mxPoint x="75" y="680" />
            </Array>
          </mxGeometry>
        </mxCell>
        <mxCell id="_dYFzU9TArgMgV9j6ooU-70" value="16. Repeat until game over" style="text;html=1;align=center;verticalAlign=middle;resizable=0;points=[];autosize=1;strokeColor=none;fillColor=none;" vertex="1" parent="1">
          <mxGeometry x="25" y="550" width="170" height="30" as="geometry" />
        </mxCell>
        <mxCell id="_dYFzU9TArgMgV9j6ooU-71" value="16. Repeat until game over" style="text;html=1;align=center;verticalAlign=middle;resizable=0;points=[];autosize=1;strokeColor=none;fillColor=none;" vertex="1" parent="1">
          <mxGeometry x="10" y="1040" width="170" height="30" as="geometry" />
        </mxCell>
        <mxCell id="_dYFzU9TArgMgV9j6ooU-72" value="&lt;b&gt;&lt;font style=&quot;font-size: 14px;&quot;&gt;[ If ]&lt;/font&gt;&lt;/b&gt;" style="text;html=1;align=center;verticalAlign=middle;resizable=0;points=[];autosize=1;strokeColor=none;fillColor=none;" vertex="1" parent="1">
          <mxGeometry x="250" y="827" width="50" height="30" as="geometry" />
        </mxCell>
        <mxCell id="_dYFzU9TArgMgV9j6ooU-73" value="&lt;span style=&quot;font-size: 14px;&quot;&gt;&lt;b&gt;[ Else ]&lt;/b&gt;&lt;/span&gt;" style="text;html=1;align=center;verticalAlign=middle;resizable=0;points=[];autosize=1;strokeColor=none;fillColor=none;" vertex="1" parent="1">
          <mxGeometry x="245" y="980" width="70" height="30" as="geometry" />
        </mxCell>
      </root>
    </mxGraphModel>
  </diagram>
</mxfile>
